<mxfile host="app.diagrams.net" modified="2022-09-30T02:15:41.633Z" agent="5.0 (X11)" etag="kwVKgtCLGPxPlup8uO8g" version="20.2.0" type="github">
  <diagram id="RBuz2cBZ_SGLQV1xP_E4" name="Page-1">
    <mxGraphModel dx="868" dy="478" grid="1" gridSize="10" guides="1" tooltips="1" connect="1" arrows="1" fold="1" page="1" pageScale="1" pageWidth="850" pageHeight="1100" math="0" shadow="0">
      <root>
        <mxCell id="0" />
        <mxCell id="1" parent="0" />
        <mxCell id="QhC6dyNWWbt6HCudvXxn-1" value="" style="shape=process;whiteSpace=wrap;html=1;backgroundOutline=1;" vertex="1" parent="1">
          <mxGeometry x="220" y="120" width="120" height="60" as="geometry" />
        </mxCell>
      </root>
    </mxGraphModel>
  </diagram>
</mxfile>
